<mxfile host="app.diagrams.net" modified="2023-12-06T01:15:21.088Z" agent="Mozilla/5.0 (X11; Linux x86_64) AppleWebKit/537.36 (KHTML, like Gecko) Chrome/119.0.0.0 Safari/537.36" etag="CS5cu6reGcctcfOhKvru" version="22.1.5" type="device">
  <diagram name="Page-1" id="N7zaA0e1mE8q2bTfTRf5">
    <mxGraphModel dx="614" dy="352" grid="1" gridSize="10" guides="1" tooltips="1" connect="1" arrows="1" fold="1" page="1" pageScale="1" pageWidth="850" pageHeight="1100" math="0" shadow="0">
      <root>
        <mxCell id="0" />
        <mxCell id="1" parent="0" />
        <mxCell id="_XashwOzzgeCxk08ripC-1" value="" style="edgeStyle=orthogonalEdgeStyle;rounded=0;orthogonalLoop=1;jettySize=auto;html=1;" edge="1" parent="1" source="_XashwOzzgeCxk08ripC-3" target="_XashwOzzgeCxk08ripC-15">
          <mxGeometry relative="1" as="geometry" />
        </mxCell>
        <mxCell id="_XashwOzzgeCxk08ripC-2" value="position" style="edgeLabel;html=1;align=center;verticalAlign=middle;resizable=0;points=[];" vertex="1" connectable="0" parent="_XashwOzzgeCxk08ripC-1">
          <mxGeometry x="-0.125" y="-1" relative="1" as="geometry">
            <mxPoint as="offset" />
          </mxGeometry>
        </mxCell>
        <mxCell id="_XashwOzzgeCxk08ripC-3" value="Teclado&lt;br&gt;□&amp;nbsp;□&amp;nbsp;□&amp;nbsp;□&lt;br&gt;&lt;b&gt;□&lt;/b&gt;&amp;nbsp;□&amp;nbsp;□&amp;nbsp;□&lt;br style=&quot;border-color: var(--border-color);&quot;&gt;□&amp;nbsp;□&amp;nbsp;□&amp;nbsp;□&lt;br style=&quot;border-color: var(--border-color);&quot;&gt;□&amp;nbsp;□&amp;nbsp;□&amp;nbsp;□" style="rounded=0;whiteSpace=wrap;html=1;fillColor=#f5f5f5;fontColor=#333333;strokeColor=#666666;" vertex="1" parent="1">
          <mxGeometry x="460" y="150" width="120" height="80" as="geometry" />
        </mxCell>
        <mxCell id="_XashwOzzgeCxk08ripC-4" value="Displays&lt;br&gt;1 □&amp;nbsp;□ 2&lt;br&gt;□&amp;nbsp;□&amp;nbsp;□&amp;nbsp;□&lt;br style=&quot;border-color: var(--border-color);&quot;&gt;□&amp;nbsp;□ 1 □&lt;br style=&quot;border-color: var(--border-color);&quot;&gt;□&amp;nbsp;□&amp;nbsp;□&amp;nbsp;□" style="rounded=0;whiteSpace=wrap;html=1;fillColor=#f5f5f5;fontColor=#333333;strokeColor=#666666;" vertex="1" parent="1">
          <mxGeometry x="280" y="70" width="120" height="80" as="geometry" />
        </mxCell>
        <mxCell id="_XashwOzzgeCxk08ripC-5" style="edgeStyle=orthogonalEdgeStyle;rounded=0;orthogonalLoop=1;jettySize=auto;html=1;entryX=1;entryY=0.5;entryDx=0;entryDy=0;" edge="1" parent="1" source="_XashwOzzgeCxk08ripC-15" target="_XashwOzzgeCxk08ripC-32">
          <mxGeometry relative="1" as="geometry" />
        </mxCell>
        <mxCell id="_XashwOzzgeCxk08ripC-6" value="pos_a" style="edgeLabel;html=1;align=center;verticalAlign=middle;resizable=0;points=[];" vertex="1" connectable="0" parent="_XashwOzzgeCxk08ripC-5">
          <mxGeometry x="0.275" relative="1" as="geometry">
            <mxPoint x="10" y="-1" as="offset" />
          </mxGeometry>
        </mxCell>
        <mxCell id="_XashwOzzgeCxk08ripC-7" style="edgeStyle=orthogonalEdgeStyle;rounded=0;orthogonalLoop=1;jettySize=auto;html=1;entryX=1;entryY=0.75;entryDx=0;entryDy=0;" edge="1" parent="1" source="_XashwOzzgeCxk08ripC-15" target="_XashwOzzgeCxk08ripC-32">
          <mxGeometry relative="1" as="geometry">
            <Array as="points">
              <mxPoint x="440" y="318" />
              <mxPoint x="440" y="318" />
            </Array>
          </mxGeometry>
        </mxCell>
        <mxCell id="_XashwOzzgeCxk08ripC-8" value="pos_b" style="edgeLabel;html=1;align=center;verticalAlign=middle;resizable=0;points=[];" vertex="1" connectable="0" parent="_XashwOzzgeCxk08ripC-7">
          <mxGeometry x="0.1291" y="3" relative="1" as="geometry">
            <mxPoint x="5" y="-3" as="offset" />
          </mxGeometry>
        </mxCell>
        <mxCell id="_XashwOzzgeCxk08ripC-9" value="" style="edgeStyle=orthogonalEdgeStyle;rounded=0;orthogonalLoop=1;jettySize=auto;html=1;entryX=0;entryY=0.25;entryDx=0;entryDy=0;" edge="1" parent="1" target="_XashwOzzgeCxk08ripC-42">
          <mxGeometry relative="1" as="geometry">
            <mxPoint x="580" y="289" as="sourcePoint" />
            <mxPoint x="640" y="289" as="targetPoint" />
          </mxGeometry>
        </mxCell>
        <mxCell id="_XashwOzzgeCxk08ripC-10" value="pos_a" style="edgeLabel;html=1;align=center;verticalAlign=middle;resizable=0;points=[];" vertex="1" connectable="0" parent="_XashwOzzgeCxk08ripC-9">
          <mxGeometry x="0.0733" relative="1" as="geometry">
            <mxPoint x="-6" as="offset" />
          </mxGeometry>
        </mxCell>
        <mxCell id="_XashwOzzgeCxk08ripC-11" style="edgeStyle=orthogonalEdgeStyle;rounded=0;orthogonalLoop=1;jettySize=auto;html=1;entryX=0;entryY=0.5;entryDx=0;entryDy=0;" edge="1" parent="1">
          <mxGeometry relative="1" as="geometry">
            <mxPoint x="580" y="306.03999999999996" as="sourcePoint" />
            <mxPoint x="660" y="306" as="targetPoint" />
            <Array as="points" />
          </mxGeometry>
        </mxCell>
        <mxCell id="_XashwOzzgeCxk08ripC-12" value="pos_b" style="edgeLabel;html=1;align=center;verticalAlign=middle;resizable=0;points=[];" vertex="1" connectable="0" parent="_XashwOzzgeCxk08ripC-11">
          <mxGeometry x="-0.39" y="-1" relative="1" as="geometry">
            <mxPoint x="12" y="-1" as="offset" />
          </mxGeometry>
        </mxCell>
        <mxCell id="_XashwOzzgeCxk08ripC-13" style="edgeStyle=orthogonalEdgeStyle;rounded=0;orthogonalLoop=1;jettySize=auto;html=1;entryX=0.25;entryY=0;entryDx=0;entryDy=0;" edge="1" parent="1" source="_XashwOzzgeCxk08ripC-15" target="_XashwOzzgeCxk08ripC-31">
          <mxGeometry relative="1" as="geometry">
            <Array as="points">
              <mxPoint x="490" y="350" />
              <mxPoint x="490" y="350" />
            </Array>
          </mxGeometry>
        </mxCell>
        <mxCell id="_XashwOzzgeCxk08ripC-14" value="escolheu" style="edgeLabel;html=1;align=center;verticalAlign=middle;resizable=0;points=[];" vertex="1" connectable="0" parent="_XashwOzzgeCxk08ripC-13">
          <mxGeometry x="-0.2701" y="-3" relative="1" as="geometry">
            <mxPoint as="offset" />
          </mxGeometry>
        </mxCell>
        <mxCell id="_XashwOzzgeCxk08ripC-54" style="edgeStyle=orthogonalEdgeStyle;rounded=0;orthogonalLoop=1;jettySize=auto;html=1;entryX=1;entryY=0.25;entryDx=0;entryDy=0;" edge="1" parent="1" source="_XashwOzzgeCxk08ripC-15" target="_XashwOzzgeCxk08ripC-32">
          <mxGeometry relative="1" as="geometry">
            <Array as="points">
              <mxPoint x="440" y="288" />
              <mxPoint x="440" y="288" />
            </Array>
          </mxGeometry>
        </mxCell>
        <mxCell id="_XashwOzzgeCxk08ripC-55" value="pos" style="edgeLabel;html=1;align=center;verticalAlign=middle;resizable=0;points=[];" vertex="1" connectable="0" parent="_XashwOzzgeCxk08ripC-54">
          <mxGeometry x="0.1333" y="-1" relative="1" as="geometry">
            <mxPoint x="4" as="offset" />
          </mxGeometry>
        </mxCell>
        <mxCell id="_XashwOzzgeCxk08ripC-15" value="Codificador&lt;br&gt;de Cartas&lt;br&gt;(COD)" style="whiteSpace=wrap;html=1;rounded=0;" vertex="1" parent="1">
          <mxGeometry x="460" y="273" width="120" height="60" as="geometry" />
        </mxCell>
        <mxCell id="_XashwOzzgeCxk08ripC-16" style="edgeStyle=orthogonalEdgeStyle;rounded=0;orthogonalLoop=1;jettySize=auto;html=1;entryX=0.75;entryY=1;entryDx=0;entryDy=0;" edge="1" parent="1" source="_XashwOzzgeCxk08ripC-15" target="_XashwOzzgeCxk08ripC-15">
          <mxGeometry relative="1" as="geometry">
            <mxPoint x="570" y="390" as="targetPoint" />
            <Array as="points">
              <mxPoint x="530" y="370" />
              <mxPoint x="550" y="370" />
            </Array>
          </mxGeometry>
        </mxCell>
        <mxCell id="_XashwOzzgeCxk08ripC-17" value="last_position&lt;br&gt;first_card" style="edgeLabel;html=1;align=center;verticalAlign=middle;resizable=0;points=[];" vertex="1" connectable="0" parent="_XashwOzzgeCxk08ripC-16">
          <mxGeometry x="-0.0658" relative="1" as="geometry">
            <mxPoint x="7" y="-5" as="offset" />
          </mxGeometry>
        </mxCell>
        <mxCell id="_XashwOzzgeCxk08ripC-18" value="" style="edgeStyle=orthogonalEdgeStyle;rounded=0;orthogonalLoop=1;jettySize=auto;html=1;entryX=0.25;entryY=0;entryDx=0;entryDy=0;" edge="1" parent="1" source="_XashwOzzgeCxk08ripC-24" target="_XashwOzzgeCxk08ripC-15">
          <mxGeometry relative="1" as="geometry">
            <Array as="points">
              <mxPoint x="440" y="200" />
              <mxPoint x="440" y="250" />
              <mxPoint x="490" y="250" />
            </Array>
            <mxPoint x="480" y="270" as="targetPoint" />
          </mxGeometry>
        </mxCell>
        <mxCell id="_XashwOzzgeCxk08ripC-19" value="viradas" style="edgeLabel;html=1;align=center;verticalAlign=middle;resizable=0;points=[];" vertex="1" connectable="0" parent="_XashwOzzgeCxk08ripC-18">
          <mxGeometry x="-0.2467" relative="1" as="geometry">
            <mxPoint x="21" y="29" as="offset" />
          </mxGeometry>
        </mxCell>
        <mxCell id="_XashwOzzgeCxk08ripC-20" value="" style="edgeStyle=orthogonalEdgeStyle;rounded=0;orthogonalLoop=1;jettySize=auto;html=1;startArrow=classic;startFill=1;" edge="1" parent="1" source="_XashwOzzgeCxk08ripC-24" target="_XashwOzzgeCxk08ripC-32">
          <mxGeometry relative="1" as="geometry" />
        </mxCell>
        <mxCell id="_XashwOzzgeCxk08ripC-21" value="viradas" style="edgeLabel;html=1;align=center;verticalAlign=middle;resizable=0;points=[];" vertex="1" connectable="0" parent="_XashwOzzgeCxk08ripC-20">
          <mxGeometry x="-0.2075" y="2" relative="1" as="geometry">
            <mxPoint y="5" as="offset" />
          </mxGeometry>
        </mxCell>
        <mxCell id="_XashwOzzgeCxk08ripC-22" style="edgeStyle=orthogonalEdgeStyle;rounded=0;orthogonalLoop=1;jettySize=auto;html=1;entryX=0;entryY=0.75;entryDx=0;entryDy=0;" edge="1" parent="1" source="_XashwOzzgeCxk08ripC-24" target="_XashwOzzgeCxk08ripC-53">
          <mxGeometry relative="1" as="geometry" />
        </mxCell>
        <mxCell id="_XashwOzzgeCxk08ripC-23" value="viradas" style="edgeLabel;html=1;align=center;verticalAlign=middle;resizable=0;points=[];" vertex="1" connectable="0" parent="_XashwOzzgeCxk08ripC-22">
          <mxGeometry x="-0.0624" y="-1" relative="1" as="geometry">
            <mxPoint as="offset" />
          </mxGeometry>
        </mxCell>
        <mxCell id="_XashwOzzgeCxk08ripC-24" value="Cartas Viradas" style="whiteSpace=wrap;html=1;rounded=0;" vertex="1" parent="1">
          <mxGeometry x="280" y="160" width="120" height="60" as="geometry" />
        </mxCell>
        <mxCell id="_XashwOzzgeCxk08ripC-25" style="edgeStyle=orthogonalEdgeStyle;rounded=0;orthogonalLoop=1;jettySize=auto;html=1;entryX=1;entryY=0.75;entryDx=0;entryDy=0;" edge="1" parent="1" source="_XashwOzzgeCxk08ripC-31" target="_XashwOzzgeCxk08ripC-15">
          <mxGeometry relative="1" as="geometry">
            <Array as="points">
              <mxPoint x="570" y="370" />
              <mxPoint x="600" y="370" />
              <mxPoint x="600" y="318" />
            </Array>
          </mxGeometry>
        </mxCell>
        <mxCell id="_XashwOzzgeCxk08ripC-26" value="enable" style="edgeLabel;html=1;align=center;verticalAlign=middle;resizable=0;points=[];" vertex="1" connectable="0" parent="_XashwOzzgeCxk08ripC-25">
          <mxGeometry x="0.0984" y="1" relative="1" as="geometry">
            <mxPoint as="offset" />
          </mxGeometry>
        </mxCell>
        <mxCell id="_XashwOzzgeCxk08ripC-29" value="" style="edgeStyle=orthogonalEdgeStyle;rounded=0;orthogonalLoop=1;jettySize=auto;html=1;" edge="1" parent="1" source="_XashwOzzgeCxk08ripC-31" target="_XashwOzzgeCxk08ripC-47">
          <mxGeometry relative="1" as="geometry" />
        </mxCell>
        <mxCell id="_XashwOzzgeCxk08ripC-30" value="ena_comp" style="edgeLabel;html=1;align=center;verticalAlign=middle;resizable=0;points=[];" vertex="1" connectable="0" parent="_XashwOzzgeCxk08ripC-29">
          <mxGeometry x="-0.375" y="-2" relative="1" as="geometry">
            <mxPoint x="11" y="-2" as="offset" />
          </mxGeometry>
        </mxCell>
        <mxCell id="_XashwOzzgeCxk08ripC-31" value="Máquina de Estados&lt;br&gt;(ME)" style="whiteSpace=wrap;html=1;rounded=0;" vertex="1" parent="1">
          <mxGeometry x="460" y="390" width="120" height="60" as="geometry" />
        </mxCell>
        <mxCell id="_XashwOzzgeCxk08ripC-32" value="Vira Cartas&lt;br&gt;(VIRA)" style="whiteSpace=wrap;html=1;rounded=0;" vertex="1" parent="1">
          <mxGeometry x="280" y="273" width="120" height="60" as="geometry" />
        </mxCell>
        <mxCell id="_XashwOzzgeCxk08ripC-33" value="" style="edgeStyle=orthogonalEdgeStyle;rounded=0;orthogonalLoop=1;jettySize=auto;html=1;" edge="1" parent="1" source="_XashwOzzgeCxk08ripC-37" target="_XashwOzzgeCxk08ripC-42">
          <mxGeometry relative="1" as="geometry" />
        </mxCell>
        <mxCell id="_XashwOzzgeCxk08ripC-34" value="cartas" style="edgeLabel;html=1;align=center;verticalAlign=middle;resizable=0;points=[];" vertex="1" connectable="0" parent="_XashwOzzgeCxk08ripC-33">
          <mxGeometry x="-0.0868" relative="1" as="geometry">
            <mxPoint as="offset" />
          </mxGeometry>
        </mxCell>
        <mxCell id="_XashwOzzgeCxk08ripC-35" style="edgeStyle=orthogonalEdgeStyle;rounded=0;orthogonalLoop=1;jettySize=auto;html=1;entryX=1;entryY=0.5;entryDx=0;entryDy=0;" edge="1" parent="1" source="_XashwOzzgeCxk08ripC-37" target="_XashwOzzgeCxk08ripC-53">
          <mxGeometry relative="1" as="geometry" />
        </mxCell>
        <mxCell id="_XashwOzzgeCxk08ripC-36" value="cartas" style="edgeLabel;html=1;align=center;verticalAlign=middle;resizable=0;points=[];" vertex="1" connectable="0" parent="_XashwOzzgeCxk08ripC-35">
          <mxGeometry x="0.2568" y="1" relative="1" as="geometry">
            <mxPoint as="offset" />
          </mxGeometry>
        </mxCell>
        <mxCell id="_XashwOzzgeCxk08ripC-37" value="Cartas do Jogo" style="whiteSpace=wrap;html=1;rounded=0;" vertex="1" parent="1">
          <mxGeometry x="660" y="160" width="120" height="60" as="geometry" />
        </mxCell>
        <mxCell id="_XashwOzzgeCxk08ripC-38" style="edgeStyle=orthogonalEdgeStyle;rounded=0;orthogonalLoop=1;jettySize=auto;html=1;entryX=0.25;entryY=0;entryDx=0;entryDy=0;" edge="1" parent="1">
          <mxGeometry relative="1" as="geometry">
            <mxPoint x="698.04" y="333" as="sourcePoint" />
            <mxPoint x="698" y="390" as="targetPoint" />
            <Array as="points">
              <mxPoint x="698" y="350" />
              <mxPoint x="698" y="350" />
            </Array>
          </mxGeometry>
        </mxCell>
        <mxCell id="_XashwOzzgeCxk08ripC-39" value="carta_a" style="edgeLabel;html=1;align=center;verticalAlign=middle;resizable=0;points=[];" vertex="1" connectable="0" parent="_XashwOzzgeCxk08ripC-38">
          <mxGeometry x="-0.0175" relative="1" as="geometry">
            <mxPoint as="offset" />
          </mxGeometry>
        </mxCell>
        <mxCell id="_XashwOzzgeCxk08ripC-40" style="edgeStyle=orthogonalEdgeStyle;rounded=0;orthogonalLoop=1;jettySize=auto;html=1;entryX=0.75;entryY=0;entryDx=0;entryDy=0;" edge="1" parent="1">
          <mxGeometry relative="1" as="geometry">
            <mxPoint x="740.04" y="333" as="sourcePoint" />
            <mxPoint x="740" y="390" as="targetPoint" />
            <Array as="points">
              <mxPoint x="740" y="350" />
              <mxPoint x="740" y="350" />
            </Array>
          </mxGeometry>
        </mxCell>
        <mxCell id="_XashwOzzgeCxk08ripC-41" value="carta_b" style="edgeLabel;html=1;align=center;verticalAlign=middle;resizable=0;points=[];" vertex="1" connectable="0" parent="_XashwOzzgeCxk08ripC-40">
          <mxGeometry x="-0.0176" y="2" relative="1" as="geometry">
            <mxPoint as="offset" />
          </mxGeometry>
        </mxCell>
        <mxCell id="_XashwOzzgeCxk08ripC-42" value="Escolhedor de Cartas&lt;br&gt;(ESC)" style="whiteSpace=wrap;html=1;rounded=0;" vertex="1" parent="1">
          <mxGeometry x="660" y="273" width="120" height="60" as="geometry" />
        </mxCell>
        <mxCell id="_XashwOzzgeCxk08ripC-43" style="edgeStyle=orthogonalEdgeStyle;rounded=0;orthogonalLoop=1;jettySize=auto;html=1;entryX=0.25;entryY=1;entryDx=0;entryDy=0;" edge="1" parent="1" source="_XashwOzzgeCxk08ripC-47" target="_XashwOzzgeCxk08ripC-32">
          <mxGeometry relative="1" as="geometry">
            <Array as="points">
              <mxPoint x="720" y="490" />
              <mxPoint x="270" y="490" />
              <mxPoint x="270" y="380" />
              <mxPoint x="310" y="380" />
            </Array>
          </mxGeometry>
        </mxCell>
        <mxCell id="_XashwOzzgeCxk08ripC-44" value="iguais" style="edgeLabel;html=1;align=center;verticalAlign=middle;resizable=0;points=[];" vertex="1" connectable="0" parent="_XashwOzzgeCxk08ripC-43">
          <mxGeometry x="0.901" y="-2" relative="1" as="geometry">
            <mxPoint y="-3" as="offset" />
          </mxGeometry>
        </mxCell>
        <mxCell id="_XashwOzzgeCxk08ripC-45" style="edgeStyle=orthogonalEdgeStyle;rounded=0;orthogonalLoop=1;jettySize=auto;html=1;entryX=0.5;entryY=1;entryDx=0;entryDy=0;" edge="1" parent="1" source="_XashwOzzgeCxk08ripC-47" target="_XashwOzzgeCxk08ripC-50">
          <mxGeometry relative="1" as="geometry">
            <Array as="points">
              <mxPoint x="720" y="470" />
              <mxPoint x="340" y="470" />
            </Array>
          </mxGeometry>
        </mxCell>
        <mxCell id="_XashwOzzgeCxk08ripC-46" value="enable := iguais" style="edgeLabel;html=1;align=center;verticalAlign=middle;resizable=0;points=[];" vertex="1" connectable="0" parent="_XashwOzzgeCxk08ripC-45">
          <mxGeometry x="0.3858" y="2" relative="1" as="geometry">
            <mxPoint x="68" y="-1" as="offset" />
          </mxGeometry>
        </mxCell>
        <mxCell id="_XashwOzzgeCxk08ripC-47" value="Comparador de Cartas&lt;br&gt;(COMP)" style="whiteSpace=wrap;html=1;rounded=0;" vertex="1" parent="1">
          <mxGeometry x="660" y="390" width="120" height="60" as="geometry" />
        </mxCell>
        <mxCell id="_XashwOzzgeCxk08ripC-48" value="" style="edgeStyle=orthogonalEdgeStyle;rounded=0;orthogonalLoop=1;jettySize=auto;html=1;" edge="1" parent="1" source="_XashwOzzgeCxk08ripC-50" target="_XashwOzzgeCxk08ripC-31">
          <mxGeometry relative="1" as="geometry" />
        </mxCell>
        <mxCell id="_XashwOzzgeCxk08ripC-49" value="cont_vira" style="edgeLabel;html=1;align=center;verticalAlign=middle;resizable=0;points=[];" vertex="1" connectable="0" parent="_XashwOzzgeCxk08ripC-48">
          <mxGeometry x="-0.0867" y="1" relative="1" as="geometry">
            <mxPoint x="-3" as="offset" />
          </mxGeometry>
        </mxCell>
        <mxCell id="_XashwOzzgeCxk08ripC-50" value="Contador de Viradas&lt;br&gt;(CONTA)" style="whiteSpace=wrap;html=1;rounded=0;" vertex="1" parent="1">
          <mxGeometry x="280" y="390" width="120" height="60" as="geometry" />
        </mxCell>
        <mxCell id="_XashwOzzgeCxk08ripC-51" style="edgeStyle=orthogonalEdgeStyle;rounded=0;orthogonalLoop=1;jettySize=auto;html=1;entryX=1;entryY=0.25;entryDx=0;entryDy=0;" edge="1" parent="1" source="_XashwOzzgeCxk08ripC-53" target="_XashwOzzgeCxk08ripC-4">
          <mxGeometry relative="1" as="geometry">
            <Array as="points">
              <mxPoint x="440" y="90" />
              <mxPoint x="440" y="90" />
            </Array>
          </mxGeometry>
        </mxCell>
        <mxCell id="_XashwOzzgeCxk08ripC-52" value="1...16" style="edgeLabel;html=1;align=center;verticalAlign=middle;resizable=0;points=[];" vertex="1" connectable="0" parent="_XashwOzzgeCxk08ripC-51">
          <mxGeometry x="0.1667" y="-1" relative="1" as="geometry">
            <mxPoint x="5" as="offset" />
          </mxGeometry>
        </mxCell>
        <mxCell id="_XashwOzzgeCxk08ripC-53" value="Manipulador de Displays" style="whiteSpace=wrap;html=1;rounded=0;" vertex="1" parent="1">
          <mxGeometry x="460" y="70" width="120" height="60" as="geometry" />
        </mxCell>
      </root>
    </mxGraphModel>
  </diagram>
</mxfile>
